<?xml version="1.0" encoding="utf-8" ?>
<svg xmlns="http://www.w3.org/2000/svg" xmlns:xlink="http://www.w3.org/1999/xlink" width="64" height="48" viewBox="0 0 64 48">
	<path transform="matrix(1 0 0 1 0 0)" d="M62 40L8 40L8 2C8 0.895 7.105 0 6 0L2 0C0.895 0 0 0.895 0 2L0 44C0 46.2088 1.79125 48 4 48L62 48C63.105 48 64 47.105 64 46L64 42C64 40.895 63.105 40 62 40ZM58 4L43.2425 4C40.57 4 39.2313 7.23125 41.1213 9.12125L45.1712 13.1712L36 22.3438L26.8288 13.1725C25.2663 11.61 22.7338 11.61 21.1725 13.1725L12.5863 21.7588C11.805 22.54 11.805 23.8063 12.5863 24.5875L15.4138 27.415C16.195 28.1963 17.4613 28.1963 18.2425 27.415L24 21.6562L33.1712 30.8275C34.7337 32.39 37.2663 32.39 38.8275 30.8275L50.8275 18.8275L54.8775 22.8775C56.7675 24.7675 59.9987 23.4287 59.9987 20.7562L59.9987 6C60 4.895 59.105 4 58 4Z" fill-rule="nonzero" fill="rgb(37, 99, 235)"/>
</svg>
